<?xml version="1.0" encoding="UTF-8" standalone="no"?>
<!-- Created with Inkscape (http://www.inkscape.org/) -->

<svg
   version="1.1"
   id="svg1"
   width="301.33334"
   height="301.33334"
   viewBox="0 0 301.33334 301.33334"
   xmlns="http://www.w3.org/2000/svg"
   xmlns:svg="http://www.w3.org/2000/svg">
  <defs
     id="defs1" />
  <g
     id="g1">
    <path
       style="fill:#122058;stroke:none"
       d="M 57.333335,14.666667 C 59.946047,27.291281 65.575274,39.549501 78.666669,44.000001 66.436922,58.143658 64.179639,71.804466 60.15021,89.333336 49.665081,134.94584 53.477256,185.97995 78.414614,226.66667 c 14.380067,23.4619 37.775086,45.7659 66.918726,46.49486 30.34477,0.75901 55.78461,-24.81179 69.70679,-49.16152 22.89337,-40.04021 27.87341,-90.25743 16.79116,-134.666674 -4.3831,-17.564108 -7.50407,-30.489136 -18.49795,-45.333335 12.56511,-4.871215 19.7214,-17.587362 20,-30.666667 l -16,7.341573 -20,5.420777 -52,-4.523662 -44,5.089498 -25.333337,-5.162537 -18.666668,-6.832316 m 56.000005,45.333335 v 1.333333 c -5.03685,0.0139 -10.04388,-0.08954 -14.661523,2.251038 -28.468013,14.42979 0.630616,58.555807 25.081283,37.043197 3.03973,-2.674462 5.35469,-6.157393 6.73455,-9.9609 1.79432,-4.945903 0.81314,-9.622661 0.17902,-14.666667 H 132 L 140.09774,90.66667 148,104 161.33334,74.666669 h 1.33333 c -1.39449,4.400594 -2.92812,8.662822 -1.93724,13.333334 0.70529,3.324422 2.32259,6.556092 4.33745,9.275716 16.67131,22.502651 51.74447,-2.489217 36.4609,-25.270569 -2.13021,-3.175232 -4.914,-6.012899 -8.19959,-7.992798 -4.55623,-2.745606 -9.52822,-2.664287 -14.66152,-2.679017 5.04295,-5.053243 21.99083,-14.539347 29.31379,-11.716044 5.12886,1.977397 8.64524,8.334168 10.81791,13.049378 5.94108,12.893616 6.94311,27.005616 0.7644,40.000001 -8.68408,18.26341 -34.08032,29.72428 -52.89507,19.44342 -6.87366,-3.75594 -12.72093,-16.4012 -21.33436,-15.82717 -8.05452,0.53679 -12.396,11.09837 -18.71914,14.93622 -14.96596,9.08364 -37.517578,3.60879 -48.373454,-9.34361 C 66.707934,98.115461 65.164517,78.498131 73.080248,62.666669 75.300535,58.226097 79.000059,50.482464 84.231484,49.051454 92.225548,46.864748 106.293,56.651552 113.33334,60.000002 m 53.33333,25.333334 c 3.6105,2.345622 7.49022,5.96108 11.99899,6.184164 9.90517,0.490071 13.58911,-11.711264 6.48455,-17.740744 -3.27122,-2.776204 -6.55883,-2.378011 -10.48354,-1.776754 2.56521,2.021648 6.31376,4.351319 6.77366,7.942384 0.66175,5.167175 -5.72469,5.162414 -8.22839,2.139913 -4.23818,-5.116395 0.30495,-11.839336 5.51235,-13.865235 8.11399,-3.156678 16.9102,2.423197 19.17798,10.449605 3.60653,12.76469 -9.20689,25.621501 -21.84876,19.880657 -5.68077,-2.579712 -7.68163,-7.642009 -9.38684,-13.21399 m -52,-14.666667 c -3.77164,0.421244 -7.23174,1.028605 -9.67592,4.304525 -4.49218,6.020813 -0.21794,14.921428 7.0144,16.013367 5.02951,0.759359 9.38354,-3.137716 13.32819,-5.651225 -1.44611,5.539246 -3.95188,10.243673 -9.33951,12.909465 -12.12967,6.001749 -24.468975,-5.779887 -22.350821,-18.242798 1.44458,-8.499675 8.963301,-12.612346 17.022631,-11.85905 4.14801,0.387715 9.04671,2.035746 10.01133,6.664612 1.22779,5.891703 -8.89955,13.205221 -10.12141,6.202657 -0.56503,-3.238179 2.86992,-7.476135 4.11111,-10.341553 M 65.333336,101.33334 c 7.451217,17.26544 24.699341,30.62757 44.000004,30.62757 7.37286,0 14.13212,-2.90138 21.33333,-3.96091 L 144,153.33334 h 4 L 161.33334,128 c 5.41599,0.92062 10.51282,3.1726 16,3.76852 14.876,1.61557 28.26481,-3.85801 38.61316,-14.45473 4.76902,-4.88349 7.74087,-10.83012 12.05351,-15.98045 l 2.66666,24 c -39.17073,5.86691 -60.95811,46.05591 -54.0535,82.66667 1.64845,8.7407 4.50223,17.36885 8.46502,25.33333 2.40365,4.83089 6.26886,9.39144 2.43931,14.54631 -14.79484,19.91487 -45.53312,22.33353 -66.18416,12.40637 -6.12074,-2.9423 -17.52352,-8.7745 -18.6749,-16.28703 -1.14319,-7.45913 7.92414,-19.36428 10.21194,-26.66565 5.2959,-16.90165 5.37385,-34.04167 -0.95782,-50.66667 -5.37565,-14.11482 -16.262237,-25.97944 -29.245891,-33.49897 -5.203445,-3.0136 -16.472987,-5.16664 -19.962962,-9.91873 -3.759659,-5.11933 -0.568812,-17.26056 2.629629,-21.91563 m 81.333334,40 c -6.99567,-6.46299 -16.93271,-22.77747 -2.66152,-27.76542 6.15059,-2.1497 12.73866,6.11543 11.32716,11.76542 -1.4024,5.61359 -5.67731,11.11735 -8.66564,16 M 97.333337,238.66667 H 94.66667 c -15.958283,-21.5472 -27.117265,-45.30344 -31.41564,-72 -1.926687,-11.96636 -1.735805,-24.01057 -3.251028,-36 31.115052,7.20177 52.768868,34.3773 50.547328,66.66667 -1.04235,15.15019 -7.50562,27.6223 -13.213993,41.33333 M 230.66667,132 c 0,39.48552 -9.64514,74.6823 -33.33333,106.66667 h -2.66667 c -13.07698,-28.91121 -21.125,-59.35543 0.89197,-86.64711 4.20197,-5.20866 9.41455,-9.08404 15.10803,-12.5319 6.225,-3.76974 12.72219,-6.75827 20,-7.48766 m -80,42.66667 c -1.17759,2.28304 -2.91518,7.34158 -6.41256,6.22634 -2.41543,-0.77024 -4.4389,-6.43455 -7.50616,-3.78395 -3.70309,3.20007 0.24553,8.89923 3.39711,10.65124 8.97551,4.98963 21.04937,-7.22636 10.52161,-13.09363 m -28,21.33334 c -11.26749,6.27539 2.60196,19.20007 11.69548,12.34362 2.56305,-1.93253 6.15765,-8.28995 2.23456,-10.77571 -3.3115,-2.09827 -5.18844,3.77152 -7.67181,4.64402 -3.35512,1.17877 -5.15512,-4.07092 -6.25823,-6.21193 m 33.33334,0 c -4.77358,9.36824 5.84194,19.92942 14.24279,11.57613 2.8597,-2.84351 2.96863,-6.48605 3.09054,-10.2428 l -10.49074,4.50411 -6.84259,-5.83744 M 148,222.66667 c -3.30017,-1.01578 -4.60196,-2.73557 -7.43518,-4.5288 -5.25426,-3.32561 -5.63202,3.46752 -3.21297,6.67077 4.84289,6.41288 19.80407,3.87274 17.35905,-5.71191 -1.62535,-6.37152 -6.18431,1.15094 -6.7109,3.56994 m -14.66666,10.66667 c -2.94395,5.71389 -6.48869,9.0364 -9.33334,1.33333 h -6.66666 c 0.14895,2.71912 0.16583,5.41659 1.57201,7.86113 7.45191,12.95459 26.92638,-2.22892 14.42799,-9.19446 m 21.33333,0 c -3.35111,17.99563 21.86473,17.44206 18.66667,0 l -8,8 z"
       id="path20314" />
  </g>
</svg>
